<svg xmlns="http://www.w3.org/2000/svg" width="617pt" height="160pt" viewBox="0 0 617 160"><g data-name="Layer 1"><clipPath id="a"><path transform="matrix(1 0 0 -1 0 160)" d="M0 0h617v160H0Z"/></clipPath><g clip-path="url(#a)" fill="#ffffff"><path d="M194.787 64.54v-5.834c0-19.184 16.482-33.375 35.851-33.375 3.884 0 7.768.578 9.5 1.156l-4.46 17.135c-1.576-.579-3.308-.789-5.04-.789-10.078 0-16.849 7.358-16.849 15.925v5.835h23.252v14.348H213.79v72.953h-19.002V78.89h-11.232V64.54ZM259.875 108.217c0 16.872 11.81 30.064 26.35 30.064 12.387 0 26.559-10.301 26.559-30.064 0-16.661-11.442-30.063-26.559-30.063-14.54 0-26.35 13.56-26.35 30.063m-19.001 0c0-25.228 18.214-44.623 42.254-44.623 12.387 0 23.253 6.623 29.656 16.504V64.593h18.949v87.302h-19.001V136.39c-6.614 9.88-17.427 16.503-29.657 16.503-23.987-.053-42.201-19.657-42.201-44.676M343.962 115.202V64.588h18.79v51.823c0 11.248 8.504 20.97 20.524 20.97 15.327 0 23.622-12.981 23.622-22.126V64.64h18.79v87.3h-18.79v-11.824c-5.985 7.568-15.486 12.824-26.561 12.824-22.833-.105-36.375-17.397-36.375-37.738M436.185 151.843V64.541h18.791v11.826c5.827-7.569 15.327-12.825 26.56-12.825 22.675 0 36.427 17.292 36.427 37.631v50.615h-18.79V99.968c0-11.826-9.082-20.971-20.733-20.971-15.485 0-23.464 13.56-23.464 22.127v50.615h-18.79ZM545.468 108.217c0 16.872 11.812 30.064 26.35 30.064 12.388 0 26.56-10.301 26.56-30.064 0-16.661-11.443-30.063-26.56-30.063-14.538 0-26.35 13.56-26.35 30.063m-19.001 0c0-25.228 18.214-44.623 42.254-44.623 12.389 0 23.253 6.623 29.657 16.504V64.593h19v87.302h-19V136.39c-6.614 9.88-17.427 16.503-29.657 16.503-24.04-.053-42.254-19.657-42.254-44.676M112.222 33.638c-9.92 3.31-14.697 9.25-17.95 18.5-.84 2.47-2.94 5.204-5.303 7.044l8.136 8.725L71.28 49.826 0 0s5.144 33.428 6.93 45.727c1.258 8.672 3.41 12.56 10.234 16.503l2.73 1.472 11.757 6.202-6.98-3.627 32.227 17.608-.21.472-34.695-16.082c1.837 6.307 5.406 18.447 6.928 23.809 1.628 5.78 3.465 7.884 9.081 9.934l10.341 3.785 6.403-2.524-8.136 5.414-40.679 51.665c27.032-25.123 49.917-34.058 66.662-41.364 21.363-9.25 34.223-15.19 42.621-36.528 5.984-14.98 10.655-34.164 16.587-41.575l12.65-16.188s-26.193 6.938-32.229 8.935"/></g></g></svg>