<svg xmlns="http://www.w3.org/2000/svg" viewBox="0 0 174.36 21.05"><defs><style>.d{fill:#fff}</style></defs><g id="b"><g id="c"><path class="d" d="M5.04.12h2.09v10.82c0 4.3-2.11 5.62-4.9 5.62-.77 0-1.7-.17-2.23-.38l.31-1.7c.43.17 1.06.31 1.75.31 1.87 0 2.98-.84 2.98-4.01V.12ZM16.97 16.3l-.17-1.46h-.07c-.65.91-1.9 1.73-3.55 1.73-2.35 0-3.55-1.66-3.55-3.34 0-2.81 2.5-4.34 6.98-4.32v-.24c0-.96-.26-2.69-2.64-2.69-1.08 0-2.21.34-3.02.86l-.48-1.39c.96-.62 2.35-1.03 3.82-1.03 3.55 0 4.42 2.42 4.42 4.75v4.34c0 1.01.05 1.99.19 2.78h-1.92Zm-.31-5.93c-2.3-.05-4.92.36-4.92 2.62 0 1.37.91 2.02 1.99 2.02 1.51 0 2.47-.96 2.81-1.94.07-.22.12-.46.12-.67v-2.02ZM22.73 4.68l2.28 6.53c.38 1.06.7 2.02.94 2.98h.07c.26-.96.6-1.92.98-2.98l2.26-6.53h2.21L26.91 16.3h-2.02L20.47 4.68h2.26ZM39.79 16.3l-.17-1.46h-.07c-.65.91-1.9 1.73-3.55 1.73-2.35 0-3.55-1.66-3.55-3.34 0-2.81 2.5-4.34 6.98-4.32v-.24c0-.96-.26-2.69-2.64-2.69-1.08 0-2.21.34-3.02.86l-.48-1.39c.96-.62 2.35-1.03 3.82-1.03 3.55 0 4.42 2.42 4.42 4.75v4.34c0 1.01.05 1.99.19 2.78H39.8Zm-.31-5.93c-2.3-.05-4.92.36-4.92 2.62 0 1.37.91 2.02 1.99 2.02 1.51 0 2.47-.96 2.81-1.94.07-.22.12-.46.12-.67v-2.02ZM44.64 14.14c.62.41 1.73.84 2.78.84 1.54 0 2.26-.77 2.26-1.73 0-1.01-.6-1.56-2.16-2.14-2.09-.74-3.07-1.9-3.07-3.29 0-1.87 1.51-3.41 4.01-3.41 1.18 0 2.21.34 2.86.72l-.53 1.54c-.46-.29-1.3-.67-2.38-.67-1.25 0-1.94.72-1.94 1.58 0 .96.7 1.39 2.21 1.97 2.02.77 3.05 1.78 3.05 3.5 0 2.04-1.58 3.48-4.34 3.48-1.27 0-2.45-.31-3.26-.79l.53-1.61ZM62.71 15.87c-.55.29-1.78.67-3.34.67-3.5 0-5.78-2.38-5.78-5.93s2.45-6.17 6.24-6.17c1.25 0 2.35.31 2.93.6l-.48 1.63c-.5-.29-1.3-.55-2.45-.55-2.66 0-4.1 1.97-4.1 4.39 0 2.69 1.73 4.34 4.03 4.34 1.2 0 1.99-.31 2.59-.58l.36 1.58ZM65.18 8.3c0-1.37-.02-2.54-.1-3.62h1.85L67 6.96h.1c.53-1.56 1.8-2.54 3.22-2.54.24 0 .41.02.6.07v1.99c-.22-.05-.43-.07-.72-.07-1.49 0-2.54 1.13-2.83 2.71-.05.29-.1.62-.1.98v6.19h-2.09V8.3ZM75.48 1.42c.02.72-.5 1.3-1.34 1.3-.74 0-1.27-.58-1.27-1.3S73.42.1 74.19.1s1.3.58 1.3 1.32ZM73.13 16.3V4.68h2.11V16.3h-2.11ZM78.74 8.47c0-1.49-.05-2.69-.1-3.79h1.9l.1 1.99h.05c.86-1.42 2.23-2.26 4.13-2.26 2.81 0 4.92 2.38 4.92 5.9 0 4.18-2.54 6.24-5.28 6.24-1.54 0-2.88-.67-3.58-1.82h-.05v6.31h-2.09V8.47Zm2.09 3.1c0 .31.05.6.1.86.38 1.46 1.66 2.47 3.17 2.47 2.23 0 3.53-1.82 3.53-4.49 0-2.33-1.22-4.32-3.46-4.32-1.44 0-2.78 1.03-3.19 2.62-.07.26-.14.58-.14.86v1.99ZM94.94 1.34v3.34h3.02v1.61h-3.02v6.26c0 1.44.41 2.26 1.58 2.26.55 0 .96-.07 1.22-.14l.1 1.58c-.41.17-1.06.29-1.87.29-.98 0-1.78-.31-2.28-.89-.6-.62-.82-1.66-.82-3.02V6.29h-1.8V4.68h1.8V1.9l2.06-.55ZM100.41.34c1.27-.19 2.78-.34 4.44-.34 3 0 5.14.7 6.55 2.02 1.44 1.32 2.28 3.19 2.28 5.81s-.82 4.8-2.33 6.29c-1.51 1.51-4.01 2.33-7.15 2.33-1.49 0-2.74-.07-3.79-.19V.34Zm2.09 14.31c.53.1 1.3.12 2.11.12 4.46 0 6.89-2.5 6.89-6.86.02-3.82-2.14-6.24-6.55-6.24-1.08 0-1.9.1-2.45.22v12.75ZM116.4.34c.91-.19 2.35-.34 3.82-.34 2.09 0 3.43.36 4.44 1.18.84.62 1.34 1.58 1.34 2.86 0 1.56-1.03 2.93-2.74 3.55v.05c1.54.38 3.34 1.66 3.34 4.06 0 1.39-.55 2.45-1.37 3.24-1.13 1.03-2.95 1.51-5.59 1.51-1.44 0-2.54-.1-3.24-.19V.34Zm2.09 6.62h1.9c2.21 0 3.5-1.15 3.5-2.71 0-1.9-1.44-2.64-3.55-2.64-.96 0-1.51.07-1.85.14v5.21Zm0 7.75c.41.07 1.01.1 1.75.1 2.16 0 4.15-.79 4.15-3.14 0-2.21-1.9-3.12-4.18-3.12h-1.73v6.17ZM128.52 15.05c0-.89.6-1.51 1.44-1.51s1.42.62 1.42 1.51-.55 1.51-1.44 1.51c-.84 0-1.42-.65-1.42-1.51ZM142.27 15.87c-.55.29-1.78.67-3.34.67-3.5 0-5.78-2.38-5.78-5.93s2.45-6.17 6.24-6.17c1.25 0 2.35.31 2.93.6l-.48 1.63c-.5-.29-1.3-.55-2.45-.55-2.66 0-4.1 1.97-4.1 4.39 0 2.69 1.73 4.34 4.03 4.34 1.2 0 1.99-.31 2.59-.58l.36 1.58ZM155.11 10.39c0 4.3-2.98 6.17-5.78 6.17-3.14 0-5.57-2.3-5.57-5.98 0-3.89 2.54-6.17 5.76-6.17s5.59 2.42 5.59 5.98Zm-9.22.12c0 2.54 1.46 4.46 3.53 4.46s3.53-1.9 3.53-4.51c0-1.97-.98-4.46-3.48-4.46s-3.58 2.3-3.58 4.51ZM157.77 7.82c0-1.2-.02-2.18-.1-3.14h1.85l.1 1.87h.07c.65-1.1 1.73-2.14 3.65-2.14 1.58 0 2.78.96 3.29 2.33h.05c.36-.65.82-1.15 1.3-1.51.7-.53 1.46-.82 2.57-.82 1.54 0 3.82 1.01 3.82 5.04v6.84h-2.06V9.71c0-2.23-.82-3.58-2.52-3.58-1.2 0-2.14.89-2.5 1.92-.1.29-.17.67-.17 1.06v7.18h-2.06V9.33c0-1.85-.82-3.19-2.42-3.19-1.32 0-2.28 1.06-2.62 2.11-.12.31-.17.67-.17 1.03v7.01h-2.06V7.82Z"/></g></g></svg>