<svg fill="none" height="300" viewBox="0 0 832 300" width="832" xmlns="http://www.w3.org/2000/svg"><g clip-rule="evenodd" fill="#fff" fill-rule="evenodd"><path d="m711.611 105.897c8.809 0 15.95-7.1409 15.95-15.9496 0-8.8086-7.141-15.9494-15.95-15.9494-8.808 0-15.949 7.1408-15.949 15.9494 0 8.8087 7.141 15.9496 15.949 15.9496zm-382.787-17.944h32.894l34.741 82.942h1.478l34.741-82.942h32.894v123.449h-25.872v-80.35h-1.047l-32.647 79.747h-17.617l-32.646-80.049h-1.048v80.652h-25.871zm186.734 125.197c-9.034 0-16.529-2.311-22.483-6.932-5.954-4.622-8.932-11.513-8.932-20.676 0-6.911 1.664-12.336 4.99-16.274 3.326-3.939 7.679-6.812 13.059-8.62 5.42-1.849 11.251-3.054 17.493-3.617 8.213-.804 14.086-1.647 17.617-2.531 3.532-.885 5.298-2.813 5.298-5.787v-.362c0-3.817-1.232-6.771-3.696-8.861-2.423-2.089-5.872-3.134-10.349-3.134-4.722 0-8.48 1.005-11.272 3.014s-4.64 4.561-5.544 7.655l-24.269-1.929c1.807-8.439 6.283-15.129 13.428-20.072 7.186-4.943 16.447-7.414 27.781-7.414 7.022 0 13.592 1.085 19.711 3.255s11.046 5.565 14.783 10.187c3.778 4.581 5.667 10.548 5.667 17.902v62.448h-24.885v-12.84h-.739c-2.3 4.3-5.749 7.816-10.349 10.549-4.558 2.692-10.328 4.039-17.309 4.039zm7.515-17.722c5.749 0 10.472-1.628 14.168-4.883 3.696-3.295 5.544-7.373 5.544-12.236v-9.825c-1.027.683-2.629 1.286-4.805 1.808-2.136.523-4.435.985-6.899 1.387-2.423.361-4.599.683-6.529.964-4.6.643-8.316 1.909-11.15 3.798-2.792 1.888-4.188 4.641-4.188 8.258 0 3.536 1.293 6.208 3.88 8.016 2.629 1.809 5.955 2.713 9.979 2.713zm78.753 44.666c7.269 4.902 17.268 7.354 29.998 7.354 9.035 0 17.022-1.327 23.962-3.979s12.381-6.59 16.323-11.814c3.984-5.224 5.975-11.674 5.975-19.349v-93.491h-26.056v15.552h-.985c-1.15-2.532-2.834-5.084-5.051-7.655-2.218-2.572-5.113-4.722-8.686-6.45-3.572-1.768-8.007-2.652-13.305-2.652-6.899 0-13.264 1.768-19.095 5.304-5.79 3.496-10.451 8.74-13.983 15.732-3.49 6.993-5.235 15.753-5.235 26.282 0 10.247 1.704 18.706 5.112 25.376 3.45 6.671 8.069 11.634 13.86 14.889 5.831 3.255 12.299 4.882 19.403 4.882 7.556 0 13.51-1.547 17.863-4.641 4.353-3.134 7.392-6.61 9.117-10.428h1.109v16.938c0 6.068-1.869 10.428-5.606 13.08-3.696 2.652-8.398 3.979-14.106 3.979-5.79 0-10.246-1.045-13.366-3.135-3.08-2.049-5.154-4.32-6.222-6.811l-24.269 3.195c1.56 6.992 5.975 12.939 13.243 17.842zm45.213-56.179c-3.449 4.581-8.336 6.872-14.66 6.872-6.448 0-11.375-2.331-14.784-6.993-3.408-4.661-5.112-10.99-5.112-18.987 0-7.876 1.683-14.306 5.051-19.289 3.408-4.983 8.356-7.474 14.845-7.474 6.365 0 11.272 2.431 14.722 7.293 3.449 4.863 5.174 11.353 5.174 19.47 0 8.158-1.745 14.527-5.236 19.108zm51.927 27.487v-92.587h26.24v92.587zm65.001-4.22c6.981 4.019 15.317 6.028 25.009 6.028 8.418 0 15.707-1.487 21.867-4.461 6.16-3.014 10.985-7.213 14.475-12.598 3.532-5.384 5.503-11.613 5.914-18.686h-24.762c-.781 4.943-2.711 8.761-5.791 11.453-3.08 2.652-6.878 3.978-11.395 3.978-6.119 0-11.026-2.411-14.722-7.233-3.655-4.862-5.482-11.714-5.482-20.555 0-8.76 1.847-15.531 5.543-20.313s8.583-7.173 14.661-7.173c4.804 0 8.685 1.426 11.642 4.279 2.997 2.813 4.845 6.531 5.544 11.152h24.762c-.37-7.153-2.361-13.382-5.975-18.686-3.573-5.305-8.48-9.424-14.722-12.357-6.201-2.934-13.428-4.4-21.682-4.4-9.569 0-17.823 2.029-24.763 6.088-6.94 4.018-12.299 9.624-16.077 16.817-3.737 7.153-5.605 15.471-5.605 24.955 0 9.363 1.848 17.641 5.544 24.834 3.736 7.193 9.075 12.819 16.015 16.878z"/><path d="m124.415.00020111c12.982 15.90039889 27.301 30.66659889 42.785 44.12749889-10.318 33.4654-15.873 69.0193-15.873 105.8713s5.555 72.407 15.873 105.872c-15.484 13.461-29.803 28.228-42.786 44.129-12.983-15.902-27.303-30.669-42.788-44.13 10.3177-33.465 15.8723-69.019 15.8723-105.871 0-36.851-5.5545-72.4041-15.8719-105.8688 15.4851-13.4615 29.8046-28.2287 42.7886-44.12999889zm-72.3838 232.73479889c-16.3914-11.489-33.7875-21.642-52.03023229-30.302 5.06010229-16.586 7.78216229-34.192 7.78217229-52.433 0-18.242-2.72202-35.847-7.78203037-52.4331 18.24279037-8.6596 35.63889037-18.8129 52.03049037-30.3018 6.2674 26.5601 9.5837 54.2599 9.5837 82.7339 0 28.475-3.3164 56.175-9.5841 82.736zm135.1838-82.736c0 28.475 3.316 56.174 9.584 82.734 16.39-11.488 33.785-21.641 52.027-30.3-5.06-16.586-7.782-34.192-7.782-52.433 0-18.242 2.722-35.848 7.782-52.434-18.242-8.6593-35.637-18.8121-52.028-30.3004-6.267 26.5599-9.583 54.2594-9.583 82.7334z"/></g></svg>