<svg width="240" height="248" viewBox="0 0 240 248" fill="none" xmlns="http://www.w3.org/2000/svg">
<circle cx="120" cy="120" r="120" fill="#9A2300"/>
<path d="M104.068 156.392H130.986V153.977C131.128 140.128 136.099 133.665 147.321 126.918C160.602 119.034 169.267 108.594 169.267 91.9034C169.267 67.0455 149.239 52.5568 121.043 52.5568C95.2614 52.5568 74.2386 66.0511 73.5994 94.4602H102.577C103.003 82.8835 111.597 76.7045 120.901 76.7045C130.489 76.7045 138.23 83.0966 138.23 92.9688C138.23 102.273 131.483 108.452 122.747 113.991C110.815 121.52 104.139 129.119 104.068 153.977V156.392ZM118.06 201.847C127.151 201.847 135.034 194.247 135.105 184.801C135.034 175.497 127.151 167.898 118.06 167.898C108.685 167.898 100.943 175.497 101.014 184.801C100.943 194.247 108.685 201.847 118.06 201.847Z" fill="white"/>
</svg>
