<svg width="161" height="166" viewBox="0 0 161 166" fill="none" xmlns="http://www.w3.org/2000/svg">
<g clip-path="url(#clip0)">
<path d="M47.2356 87.9845C60.4117 75.3395 78.1142 72.3379 86.7754 81.2803C95.4366 90.2227 91.7766 107.723 78.6006 120.368C65.4245 133.013 23.6193 159.145 14.9582 150.203C6.29698 141.26 34.0596 100.629 47.2356 87.9845Z" fill="#FDB003"/>
<path d="M41.5072 88.1878C49.3959 85.8719 57.4711 90.1822 59.5437 97.8152C61.6163 105.448 56.9014 113.513 49.0127 115.829C41.124 118.145 18.6182 118.071 16.5456 110.438C14.473 102.805 33.6185 90.5037 41.5072 88.1878Z" fill="#FDB003"/>
<path d="M50.3441 116.918C51.2769 108.828 58.4827 102.831 66.4386 103.523C74.3946 104.216 80.088 111.336 79.1552 119.426C78.2223 127.517 69.3102 148.314 61.3542 147.622C53.3983 146.929 49.4113 125.009 50.3441 116.918Z" fill="#FDB003"/>
<path d="M87.7179 109.548C80.2819 96.2693 82.8456 82.9838 93.444 79.8741C104.043 76.7645 118.662 85.0082 126.098 98.2871C133.534 111.566 144.573 149.142 133.975 152.252C123.376 155.361 95.1539 122.827 87.7179 109.548Z" fill="#FDB003"/>
<path d="M79.1943 114.566C78.4343 107.533 84.1065 102.436 91.8635 103.182C99.6206 103.927 106.525 110.232 107.285 117.265C108.045 124.298 103.763 142.261 96.0063 141.516C88.2493 140.77 79.9544 121.6 79.1943 114.566Z" fill="#FDB003"/>
<path d="M117.977 111.788C110.746 107.613 107.505 99.6889 110.738 94.089C113.971 88.4892 122.454 87.3339 129.685 91.5086C136.916 95.6834 153.384 111.244 150.151 116.844C146.918 122.444 125.208 115.962 117.977 111.788Z" fill="#FDB003"/>
<path d="M48.6466 33.6433C55.0676 37.9396 57.5601 46.9321 54.2138 53.7287C50.8674 60.5254 42.9494 62.5523 36.5284 58.256C30.1073 53.9597 15.869 37.1081 19.2154 30.3114C22.5617 23.5148 42.2256 29.347 48.6466 33.6433Z" fill="#FDB003"/>
<path d="M63.9733 41.3021C79.1277 46.341 89.4187 59.9502 86.959 71.6991C84.4993 83.4479 70.2202 88.8874 55.0658 83.8484C39.9114 78.8095 1.89878 55.9828 4.35851 44.2339C6.81823 32.4851 48.8189 36.2632 63.9733 41.3021Z" fill="#FDB003"/>
<path d="M43.1958 61.2861C50.4629 61.5412 56.5568 68.2272 56.8069 76.2196C57.057 84.2121 51.3687 90.4845 44.1016 90.2294C36.8345 89.9743 17.4471 82.8217 17.197 74.8293C16.9469 66.8368 35.9287 61.031 43.1958 61.2861Z" fill="#FDB003"/>
<path d="M95.6714 35.5269C96.1328 41.824 91.5931 47.952 85.5317 49.2142C79.4704 50.4764 74.1826 46.3948 73.7213 40.0977C73.2599 33.8006 76.9557 16.1534 83.0171 14.8912C89.0784 13.629 95.2101 29.2298 95.6714 35.5269Z" fill="#FDB003"/>
<path d="M98.4452 49.252C102.82 61.5488 99.2282 75.0224 90.4224 79.3463C81.6166 83.6701 70.9316 77.2067 66.5567 64.91C62.1818 52.6132 57.7708 16.6454 66.5766 12.3215C75.3824 7.9977 94.0703 36.9552 98.4452 49.252Z" fill="#FDB003"/>
<path d="M75.123 45.9154C78.6132 50.7252 77.3706 58.0134 72.3475 62.1939C67.3244 66.3744 60.423 65.8642 56.9328 61.0543C53.4425 56.2445 48.3005 40.1578 53.3236 35.9773C58.3467 31.7968 71.6328 41.1055 75.123 45.9154Z" fill="#FDB003"/>
<path d="M129.823 57.4487C123.525 56.9873 117.397 61.527 116.135 67.5884C114.873 73.6498 118.955 78.9375 125.252 79.3988C131.549 79.8602 149.196 76.1644 150.458 70.1031C151.72 64.0417 136.12 57.91 129.823 57.4487Z" fill="#FDB003"/>
<path d="M116.097 54.6742C103.8 50.2993 90.3268 53.8912 86.003 62.697C81.6791 71.5028 88.1425 82.1878 100.439 86.5627C112.736 90.9376 148.704 95.3486 153.028 86.5428C157.352 77.737 128.394 59.0491 116.097 54.6742Z" fill="#FDB003"/>
<path d="M119.433 77.9959C114.623 74.5057 107.335 75.7483 103.154 80.7714C98.9736 85.7945 99.4838 92.6959 104.294 96.1861C109.104 99.6764 125.19 104.818 129.371 99.7953C133.551 94.7722 124.243 81.4861 119.433 77.9959Z" fill="#FDB003"/>
<ellipse cx="83.371" cy="78.023" rx="19.7662" ry="16.06" transform="rotate(-135 83.371 78.023)" fill="#FDB003"/>
<mask id="mask0" style="mask-type:alpha" maskUnits="userSpaceOnUse" x="4" y="11" width="153" height="142">
<path d="M47.2356 87.9845C60.4117 75.3395 78.1142 72.3379 86.7754 81.2803C95.4366 90.2227 91.7766 107.723 78.6006 120.368C65.4245 133.013 23.6193 159.145 14.9582 150.203C6.29698 141.26 34.0596 100.629 47.2356 87.9845Z" fill="#EB750A"/>
<path d="M41.5072 88.1878C49.3959 85.8719 57.4711 90.1822 59.5437 97.8152C61.6163 105.448 56.9014 113.513 49.0127 115.829C41.124 118.145 18.6182 118.071 16.5456 110.438C14.473 102.805 33.6185 90.5037 41.5072 88.1878Z" fill="#EB750A"/>
<path d="M50.3441 116.918C51.2769 108.828 58.4827 102.831 66.4386 103.523C74.3946 104.216 80.088 111.336 79.1552 119.426C78.2223 127.517 69.3102 148.314 61.3542 147.622C53.3983 146.929 49.4113 125.009 50.3441 116.918Z" fill="#EB750A"/>
<path d="M87.7179 109.548C80.2819 96.2693 82.8456 82.9838 93.444 79.8741C104.043 76.7645 118.662 85.0082 126.098 98.2871C133.534 111.566 144.573 149.142 133.975 152.252C123.376 155.361 95.1539 122.827 87.7179 109.548Z" fill="#EB750A"/>
<path d="M79.1943 114.566C78.4343 107.533 84.1065 102.436 91.8635 103.182C99.6206 103.927 106.525 110.232 107.285 117.265C108.045 124.298 103.763 142.261 96.0063 141.516C88.2493 140.77 79.9544 121.6 79.1943 114.566Z" fill="#EB750A"/>
<path d="M117.977 111.788C110.746 107.613 107.505 99.6889 110.738 94.089C113.971 88.4892 122.454 87.3339 129.685 91.5086C136.916 95.6834 153.384 111.244 150.151 116.844C146.918 122.444 125.208 115.962 117.977 111.788Z" fill="#EB750A"/>
<path d="M48.6466 33.6433C55.0676 37.9396 57.5601 46.9321 54.2138 53.7287C50.8674 60.5254 42.9494 62.5523 36.5284 58.256C30.1073 53.9597 15.869 37.1081 19.2154 30.3114C22.5617 23.5148 42.2256 29.347 48.6466 33.6433Z" fill="#EB750A"/>
<path d="M63.9733 41.3021C79.1277 46.341 89.4187 59.9502 86.959 71.6991C84.4993 83.4479 70.2202 88.8874 55.0658 83.8484C39.9114 78.8095 1.89878 55.9828 4.35851 44.2339C6.81823 32.4851 48.8189 36.2632 63.9733 41.3021Z" fill="#EB750A"/>
<path d="M43.1958 61.2861C50.4629 61.5412 56.5568 68.2272 56.8069 76.2196C57.057 84.2121 51.3687 90.4845 44.1016 90.2294C36.8345 89.9743 17.4471 82.8217 17.197 74.8293C16.9469 66.8368 35.9287 61.031 43.1958 61.2861Z" fill="#EB750A"/>
<path d="M95.6714 35.5269C96.1328 41.824 91.5931 47.952 85.5317 49.2142C79.4704 50.4764 74.1826 46.3948 73.7213 40.0977C73.2599 33.8006 76.9557 16.1534 83.0171 14.8912C89.0784 13.629 95.2101 29.2298 95.6714 35.5269Z" fill="#EB750A"/>
<path d="M98.4452 49.252C102.82 61.5488 99.2282 75.0224 90.4224 79.3463C81.6166 83.6701 70.9316 77.2067 66.5567 64.91C62.1818 52.6132 57.7708 16.6454 66.5766 12.3215C75.3824 7.9977 94.0703 36.9552 98.4452 49.252Z" fill="#EB750A"/>
<path d="M75.123 45.9154C78.6132 50.7252 77.3706 58.0134 72.3475 62.1939C67.3244 66.3744 60.423 65.8642 56.9328 61.0543C53.4425 56.2445 48.3005 40.1578 53.3236 35.9773C58.3467 31.7968 71.6328 41.1055 75.123 45.9154Z" fill="#EB750A"/>
<path d="M129.823 57.4487C123.525 56.9873 117.397 61.527 116.135 67.5884C114.873 73.6498 118.955 78.9375 125.252 79.3988C131.549 79.8602 149.196 76.1644 150.458 70.1031C151.72 64.0417 136.12 57.91 129.823 57.4487Z" fill="#EB750A"/>
<path d="M116.097 54.6742C103.8 50.2993 90.3268 53.8912 86.003 62.697C81.6791 71.5028 88.1425 82.1878 100.439 86.5627C112.736 90.9376 148.704 95.3486 153.028 86.5428C157.352 77.737 128.394 59.0491 116.097 54.6742Z" fill="#EB750A"/>
<path d="M119.433 77.9959C114.623 74.5057 107.335 75.7483 103.154 80.7714C98.9736 85.7945 99.4838 92.6959 104.294 96.1861C109.104 99.6764 125.19 104.818 129.371 99.7953C133.551 94.7722 124.243 81.4861 119.433 77.9959Z" fill="#EB750A"/>
<ellipse cx="83.371" cy="78.023" rx="19.7662" ry="16.06" transform="rotate(-135 83.371 78.023)" fill="#EB750A"/>
</mask>
<g mask="url(#mask0)">
<path d="M157.134 153.636C109.161 102.315 16.0118 -8.97561 27.1933 -43.5682C38.3747 -78.1607 110.908 -71.8129 145.778 -64.3149C184.359 -11.0285 254.534 100.961 226.581 122.625C198.627 144.289 168.635 152.325 157.134 153.636Z" fill="#FF3E00"/>
</g>
<path d="M93.4053 72.4786C92.2517 69.9311 103.444 72.0989 104.509 72.2387C114.697 73.5754 124.776 75.2696 134.855 77.261C136.344 77.5553 143.739 77.9192 144.471 79.5827C145.591 82.1254 134.433 79.9546 133.362 79.8142C123.174 78.4796 113.097 76.7765 103.017 74.7873C101.518 74.4915 94.1569 74.1385 93.4053 72.4786ZM95.3401 71.5144C95.555 72.0207 95.4161 72.6107 94.9307 72.9074C93.0546 74.054 88.6157 62.5755 88.0451 61.3957C81.265 47.3757 73.7096 33.5051 67.6241 19.1692C67.4092 18.6629 67.5481 18.0729 68.0335 17.7762C69.9201 16.6231 74.3572 28.1261 74.9191 29.2879C81.6992 43.3079 89.2546 57.1785 95.3401 71.5144ZM94.6336 73.0326C91.5792 73.6574 100.627 62.5204 101.342 61.6396C106.191 55.6639 126.893 28.5943 132.029 25.8518C135.953 23.7561 126.765 35.543 125.609 36.9484C118.149 46.0212 110.707 55.1151 102.934 63.9238C101.306 65.7684 97.236 72.5003 94.6336 73.0326ZM95.4452 72.0611C95.1839 74.2537 79.8674 69.7647 77.4617 69.2056C61.9723 65.6058 46.7332 61.0822 31.4976 56.5448C28.5499 55.6669 17.6419 54.4044 15.7615 51.6753C12.8435 47.4403 32.5086 53.7838 33.2982 53.9753C49.3999 57.8817 65.4486 61.8789 81.2776 66.7912C82.7176 67.2381 95.6897 70.0098 95.4452 72.0611ZM93.8411 71.0406C97.6139 69.1785 91.6615 76.2877 91.4298 76.5243C87.2858 80.7568 83.1463 84.9936 79.0023 89.2261C65.7344 102.778 52.3426 116.192 38.7904 129.459C33.9528 134.195 27.695 143.317 21.5071 146.312C17.8257 148.093 24.3049 140.435 24.6042 140.129C28.5228 136.129 32.4321 132.12 36.3487 128.118C49.5834 114.595 62.9576 101.225 76.4766 87.9855C81.3738 83.1897 87.6044 74.1188 93.8411 71.0406ZM93.2934 72.1112C93.2738 71.8276 93.3331 71.5572 93.5088 71.3278C95.4415 68.8042 101.596 84.5362 102.51 86.4372C108.841 99.6011 115.101 112.789 121.052 126.13C122.685 129.789 127.993 137.291 127.769 141.437C127.529 145.89 119.999 130.133 118.486 127.013C112.294 114.238 106.402 101.333 100.572 88.3902C98.574 83.9553 93.6349 77.0572 93.2934 72.1112Z" fill="black"/>
</g>
<defs>
<clipPath id="clip0">
<rect width="161" height="166" fill="white"/>
</clipPath>
</defs>
</svg>
