<svg width="278" height="219" fill="none" xmlns="http://www.w3.org/2000/svg"><circle cx="92.457" cy="192.189" r="11.04" transform="rotate(158.226 92.457 192.189)" fill="#FF3E00"/><ellipse cx="74.912" cy="184.788" rx="13.549" ry="11.04" transform="rotate(158.226 74.912 184.788)" fill="#FF3E00"/><ellipse cx="60.692" cy="172.636" rx="13.549" ry="13.883" transform="rotate(158.226 60.692 172.636)" fill="#FF3E00"/><ellipse cx="102.065" cy="173.401" rx="13.549" ry="13.883" transform="rotate(158.226 102.065 173.401)" fill="#FF3E00"/><ellipse cx="102.948" cy="146.752" rx="13.549" ry="13.883" transform="rotate(158.226 102.948 146.752)" fill="#FF3E00"/><ellipse cx="100.287" cy="121.156" rx="13.549" ry="13.883" transform="rotate(158.226 100.287 121.156)" fill="#FF3E00"/><ellipse cx="86.385" cy="95.369" rx="16.894" ry="17.229" transform="rotate(158.226 86.385 95.369)" fill="#FF3E00"/><ellipse cx="56.437" cy="105.17" rx="16.894" ry="17.229" transform="rotate(158.226 56.437 105.17)" fill="#FF3E00"/><ellipse cx="33.758" cy="114.229" rx="16.894" ry="17.229" transform="rotate(158.226 33.758 114.229)" fill="#FF3E00"/><ellipse cx="44.495" cy="136.598" rx="16.894" ry="17.229" transform="rotate(158.226 44.495 136.598)" fill="#FF3E00"/><ellipse cx="55.047" cy="153.997" rx="16.894" ry="17.229" transform="rotate(158.226 55.047 153.997)" fill="#FF3E00"/><ellipse cx="86.163" cy="169.667" rx="16.894" ry="17.229" transform="rotate(158.226 86.163 169.667)" fill="#FF3E00"/><ellipse cx="86.544" cy="150.781" rx="16.894" ry="17.229" transform="rotate(158.226 86.544 150.781)" fill="#FF3E00"/><ellipse cx="74.5" cy="135.059" rx="16.894" ry="17.229" transform="rotate(158.226 74.5 135.059)" fill="#FF3E00"/><ellipse cx="86.618" cy="126.616" rx="16.894" ry="17.229" transform="rotate(158.226 86.618 126.616)" fill="#FF3E00"/><ellipse cx="79.542" cy="114.313" rx="16.894" ry="17.229" transform="rotate(158.226 79.542 114.313)" fill="#FF3E00"/><ellipse cx="62.89" cy="121.325" rx="16.894" ry="17.229" transform="rotate(158.226 62.89 121.325)" fill="#FF3E00"/><ellipse cx="71.011" cy="156.986" rx="16.894" ry="17.229" transform="rotate(158.226 71.011 156.986)" fill="#FF3E00"/><mask id="a" style="mask-type:alpha" maskUnits="userSpaceOnUse" x="11" y="73" width="110" height="134"><circle cx="92.457" cy="192.189" r="11.04" transform="rotate(158.226 92.457 192.189)" fill="#EB750A"/><ellipse cx="74.912" cy="184.788" rx="13.549" ry="11.04" transform="rotate(158.226 74.912 184.788)" fill="#EB750A"/><ellipse cx="60.692" cy="172.636" rx="13.549" ry="13.883" transform="rotate(158.226 60.692 172.636)" fill="#EB750A"/><ellipse cx="102.065" cy="173.401" rx="13.549" ry="13.883" transform="rotate(158.226 102.065 173.401)" fill="#EB750A"/><ellipse cx="102.948" cy="146.752" rx="13.549" ry="13.883" transform="rotate(158.226 102.948 146.752)" fill="#EB750A"/><ellipse cx="100.287" cy="121.156" rx="13.549" ry="13.883" transform="rotate(158.226 100.287 121.156)" fill="#EB750A"/><ellipse cx="86.385" cy="95.369" rx="16.894" ry="17.229" transform="rotate(158.226 86.385 95.369)" fill="#EB750A"/><ellipse cx="56.437" cy="105.17" rx="16.894" ry="17.229" transform="rotate(158.226 56.437 105.17)" fill="#EB750A"/><ellipse cx="33.758" cy="114.229" rx="16.894" ry="17.229" transform="rotate(158.226 33.758 114.229)" fill="#EB750A"/><ellipse cx="44.495" cy="136.598" rx="16.894" ry="17.229" transform="rotate(158.226 44.495 136.598)" fill="#EB750A"/><ellipse cx="55.047" cy="153.997" rx="16.894" ry="17.229" transform="rotate(158.226 55.047 153.997)" fill="#EB750A"/><ellipse cx="86.163" cy="169.667" rx="16.894" ry="17.229" transform="rotate(158.226 86.163 169.667)" fill="#EB750A"/><ellipse cx="86.544" cy="150.781" rx="16.894" ry="17.229" transform="rotate(158.226 86.544 150.781)" fill="#EB750A"/><ellipse cx="74.5" cy="135.059" rx="16.894" ry="17.229" transform="rotate(158.226 74.5 135.059)" fill="#EB750A"/><ellipse cx="86.618" cy="126.616" rx="16.894" ry="17.229" transform="rotate(158.226 86.618 126.616)" fill="#EB750A"/><ellipse cx="79.542" cy="114.313" rx="16.894" ry="17.229" transform="rotate(158.226 79.542 114.313)" fill="#EB750A"/><ellipse cx="62.89" cy="121.325" rx="16.894" ry="17.229" transform="rotate(158.226 62.89 121.325)" fill="#EB750A"/><ellipse cx="71.011" cy="156.986" rx="16.894" ry="17.229" transform="rotate(158.226 71.011 156.986)" fill="#EB750A"/></mask><g mask="url(#a)"><path d="M5.24 124c24.96-26.974 107.249-11.38 145.272-.211-.521-14.682-2.909-48.948-8.292-68.556-5.383-19.608-90.416-4.65-132.26 5.28C-2.014 92.915-19.721 150.974 5.24 124Z" fill="#FDB003"/></g><path fill-rule="evenodd" clip-rule="evenodd" d="M95.791 194.778a.836.836 0 0 1-1.064-.517c-3.985-11.504-8.274-22.339-12.868-32.506l-6.157 21.427a.837.837 0 0 1-1.608-.462l6.083-24.881-3.489-8.735a.24.24 0 0 1-.007-.017l-4.377-10.959-13.229 25.329a.836.836 0 0 1-1.508-.723l13.397-27.96-6.13-15.344a.052.052 0 0 0-.002-.007l-2.469-6.18-15.766 26.788a.837.837 0 0 1-1.441-.848l15.8-29.453C53.49 91.531 47.254 75.914 41.003 59.77a.836.836 0 1 1 1.56-.604c6.29 16.243 13.194 33.529 20.715 51.857l.003.009m.006.014 2.34 5.859 38.002 15.172a.837.837 0 0 1-.573 1.572L67.08 120.542l5.572 13.95m.002.005 5.108 12.787 26.343 16.796a.837.837 0 0 1-.872 1.428L79.17 150.809l3.28 8.209c4.97 10.808 9.59 22.373 13.858 34.696a.837.837 0 0 1-.517 1.064" fill="#000"/><circle cx="243.985" cy="112.293" r="11.04" transform="rotate(120 243.985 112.293)" fill="#FDB003"/><ellipse cx="225.622" cy="117.336" rx="13.549" ry="11.04" transform="rotate(120 225.622 117.336)" fill="#FDB003"/><ellipse cx="206.932" cy="116.589" rx="13.549" ry="13.883" transform="rotate(120 206.932 116.589)" fill="#FDB003"/><ellipse cx="239.906" cy="91.59" rx="13.549" ry="13.883" transform="rotate(120 239.906 91.59)" fill="#FDB003"/><ellipse cx="224.111" cy="70.108" rx="13.549" ry="13.883" transform="rotate(120 224.111 70.108)" fill="#FDB003"/><ellipse cx="206.184" cy="51.646" rx="13.549" ry="13.883" transform="rotate(120 206.184 51.646)" fill="#FDB003"/><ellipse cx="179.306" cy="39.991" rx="16.894" ry="17.229" transform="rotate(120 179.306 39.991)" fill="#FDB003"/><ellipse cx="161.843" cy="66.221" rx="16.894" ry="17.229" transform="rotate(120 161.843 66.221)" fill="#FDB003"/><ellipse cx="149.633" cy="87.37" rx="16.894" ry="17.229" transform="rotate(120 149.633 87.37)" fill="#FDB003"/><ellipse cx="171.909" cy="98.3" rx="16.894" ry="17.229" transform="rotate(120 171.909 98.3)" fill="#FDB003"/><ellipse cx="190.964" cy="105.439" rx="16.894" ry="17.229" transform="rotate(120 190.964 105.439)" fill="#FDB003"/><ellipse cx="225.105" cy="98.495" rx="16.894" ry="17.229" transform="rotate(120 225.105 98.495)" fill="#FDB003"/><ellipse cx="213.718" cy="83.423" rx="16.894" ry="17.229" transform="rotate(120 213.718 83.423)" fill="#FDB003"/><ellipse cx="194.529" cy="78.525" rx="16.894" ry="17.229" transform="rotate(120 194.529 78.525)" fill="#FDB003"/><ellipse cx="198.824" cy="64.394" rx="16.894" ry="17.229" transform="rotate(120 198.824 64.394)" fill="#FDB003"/><ellipse cx="185.652" cy="59.107" rx="16.894" ry="17.229" transform="rotate(120 185.652 59.107)" fill="#FDB003"/><ellipse cx="176.91" cy="74.919" rx="16.894" ry="17.229" transform="rotate(120 176.91 74.919)" fill="#FDB003"/><ellipse cx="205.355" cy="97.909" rx="16.894" ry="17.229" transform="rotate(120 205.355 97.91)" fill="#FDB003"/><mask id="b" style="mask-type:alpha" maskUnits="userSpaceOnUse" x="126" y="16" width="134" height="120"><circle cx="243.985" cy="112.293" r="11.04" transform="rotate(120 243.985 112.293)" fill="#EB750A"/><ellipse cx="225.622" cy="117.336" rx="13.549" ry="11.04" transform="rotate(120 225.622 117.336)" fill="#EB750A"/><ellipse cx="206.932" cy="116.589" rx="13.549" ry="13.883" transform="rotate(120 206.932 116.589)" fill="#EB750A"/><ellipse cx="239.906" cy="91.59" rx="13.549" ry="13.883" transform="rotate(120 239.906 91.59)" fill="#EB750A"/><ellipse cx="224.111" cy="70.108" rx="13.549" ry="13.883" transform="rotate(120 224.111 70.108)" fill="#EB750A"/><ellipse cx="206.184" cy="51.646" rx="13.549" ry="13.883" transform="rotate(120 206.184 51.646)" fill="#EB750A"/><ellipse cx="179.306" cy="39.991" rx="16.894" ry="17.229" transform="rotate(120 179.306 39.991)" fill="#EB750A"/><ellipse cx="161.843" cy="66.221" rx="16.894" ry="17.229" transform="rotate(120 161.843 66.221)" fill="#EB750A"/><ellipse cx="149.633" cy="87.37" rx="16.894" ry="17.229" transform="rotate(120 149.633 87.37)" fill="#EB750A"/><ellipse cx="171.909" cy="98.3" rx="16.894" ry="17.229" transform="rotate(120 171.909 98.3)" fill="#EB750A"/><ellipse cx="190.964" cy="105.439" rx="16.894" ry="17.229" transform="rotate(120 190.964 105.439)" fill="#EB750A"/><ellipse cx="225.105" cy="98.495" rx="16.894" ry="17.229" transform="rotate(120 225.105 98.495)" fill="#EB750A"/><ellipse cx="213.718" cy="83.423" rx="16.894" ry="17.229" transform="rotate(120 213.718 83.423)" fill="#EB750A"/><ellipse cx="194.529" cy="78.525" rx="16.894" ry="17.229" transform="rotate(120 194.529 78.525)" fill="#EB750A"/><ellipse cx="198.824" cy="64.394" rx="16.894" ry="17.229" transform="rotate(120 198.824 64.394)" fill="#EB750A"/><ellipse cx="185.652" cy="59.107" rx="16.894" ry="17.229" transform="rotate(120 185.652 59.107)" fill="#EB750A"/><ellipse cx="176.91" cy="74.919" rx="16.894" ry="17.229" transform="rotate(120 176.91 74.919)" fill="#EB750A"/><ellipse cx="205.355" cy="97.909" rx="16.894" ry="17.229" transform="rotate(120 205.355 97.91)" fill="#EB750A"/></mask><g mask="url(#b)"><path d="M133.276 112.692c2.918-36.635 77.211-75.3 113.992-90.054-9.493-11.212-32.571-36.652-48.933-48.725-16.362-12.074-73.907 52.293-100.634 85.985 10.642 32.863 32.656 89.429 35.575 52.794Z" fill="#BBA10D"/></g><path fill-rule="evenodd" clip-rule="evenodd" d="M248.206 112.264a.836.836 0 0 1-1.155.253c-10.249-6.572-20.323-12.429-30.223-17.574l8.422 20.642a.838.838 0 0 1-1.549.632l-10.617-23.31-8.145-4.703a.194.194 0 0 1-.016-.009l-10.22-5.9 5.28 28.082a.837.837 0 0 1-1.633.366l-6.775-30.254-14.31-8.262-.006-.004-5.763-3.327 4.19 30.8a.836.836 0 0 1-1.658.225l-5.812-32.914c-17.124-9.677-31.688-18.087-46.588-26.902a.836.836 0 0 1 .852-1.44c14.992 8.87 31.112 18.177 48.361 27.922l.008.004m.013.008 5.464 3.154 39.241-11.595a.837.837 0 1 1 .522 1.59L179.717 71.71l13.009 7.511m.005.003 11.925 6.885 31.087-3.106a.837.837 0 1 1 .198 1.661l-27.998 3.343 7.655 4.42c10.593 5.414 21.378 11.642 32.356 18.681a.836.836 0 0 1 .252 1.155" fill="#000"/></svg>