<svg width="120" height="116" fill="none" xmlns="http://www.w3.org/2000/svg">
  <path d="M13.4 109.8V100h4c1 0 2 .3 2.4.8.6.6.8 1.3.8 2.2a3 3 0 0 1-.8 2c-.5.7-1.3 1-2.4 1h-2.5v3.8h-1.5Zm4-5.2c.6 0 1-.2 1.3-.5.3-.3.4-.7.4-1.1 0-.4-.1-.8-.4-1.1-.2-.4-.7-.5-1.2-.5h-2.6v3.2h2.6Zm8.5 5.2V100H30c1.1 0 2 .3 2.4.8.5.6.8 1.3.8 2a3 3 0 0 1-.6 1.8c-.3.5-.9.9-1.6 1l2 4.2h-1.6l-2-4h-2v4h-1.5Zm1.4-5.4H30c.6 0 1-.2 1.3-.4.2-.3.4-.7.4-1.1 0-.4-.2-.8-.4-1-.3-.4-.7-.5-1.3-.5h-2.7v3Zm11.6 5.4V100H45v1.4h-4.6v2.6h3v1.4h-3v3h5v1.4h-6.5Zm15 .2a4 4 0 0 1-2.2-.7c-.7-.4-1.1-1-1.3-1.7l1.3-.5c.2.4.5.8 1 1 .3.3.8.5 1.3.5s1-.2 1.3-.4c.3-.3.5-.7.5-1.2 0-.2 0-.3-.2-.5 0-.2-.2-.3-.3-.5a4.7 4.7 0 0 0-1.1-.6l-.7-.2a22.3 22.3 0 0 1-1.5-.7c-.3-.2-.6-.3-.7-.5l-.4-.7c-.2-.3-.2-.6-.2-1 0-.6.3-1.3.8-1.7.6-.5 1.4-.8 2.3-.8a4 4 0 0 1 2 .5c.5.4.9.9 1 1.5l-1.3.4c-.1-.3-.4-.5-.7-.7-.3-.2-.6-.3-1.1-.3-.5 0-.8.1-1.1.3a1 1 0 0 0-.4.9c0 .2.1.5.3.7l.7.4a19.1 19.1 0 0 0 1.6.6 6.5 6.5 0 0 1 1.2.6l.5.4.4.5.3.6v.8c0 1-.2 1.7-.9 2.2-.6.5-1.4.8-2.4.8Zm9-.2V100H69v1.4h-4.6v2.6h3v1.4h-3v3h5v1.4h-6.5Zm19.5 0H81l-4.3-6.7-.3-.7v7.4h-1.5V100h1.5l4.1 6.5.5.8V100h1.4v9.8Zm9.7-8.4v8.4h-1.5v-8.4h-2.8V100h7v1.4h-2.7Zm11.2 8.6a4 4 0 0 1-2.2-.7c-.7-.4-1.1-1-1.4-1.7l1.4-.5c.2.4.5.8 1 1 .3.3.8.5 1.3.5s1-.2 1.3-.4c.3-.3.5-.7.5-1.2 0-.2 0-.3-.2-.5 0-.2-.2-.3-.3-.5l-.5-.3-.6-.3-.7-.2a22.2 22.2 0 0 1-1.5-.7c-.3-.2-.6-.3-.7-.5l-.4-.7c-.2-.3-.2-.6-.2-1 0-.6.3-1.3.8-1.7.6-.5 1.3-.8 2.3-.8a4 4 0 0 1 2 .5c.5.4.9.9 1 1.5l-1.3.4c-.1-.3-.4-.5-.7-.7-.3-.2-.6-.3-1.1-.3-.5 0-.8.1-1.1.3a1 1 0 0 0-.4.9c0 .2.1.5.3.7l.7.4a19.4 19.4 0 0 0 1.6.6 6.3 6.3 0 0 1 1.2.6l.5.4.4.5.3.6v.8c0 1-.2 1.7-.9 2.2-.6.5-1.4.8-2.4.8Z" fill="#fff"/>
  <g clip-path="url(#a)">
    <circle cx="60" cy="39.2" r="38.2" fill="url(#b)"/>
    <circle cx="60" cy="39.6" r="27.6" fill="#fff" stroke="#000" stroke-width=".6"/>
    <path d="m87.9 52.9 4-.7 1.9.7.3-.9-1.9-.7-2.5-3.1-.4 1 1.8 2.2-2.8.4-.4 1Zm-6.3 9.3 1.2-1.2 3.4 3.3.7-.8-3.4-3.2 1.2-1.3-.6-.5-3 3.1.5.6ZM73 72.6l3.4-1.5-.4-.8-2.4 1.2L73 70l2.2-1-.4-.8-2.2 1L72 68l2.3-1.1-.3-.8-3.3 1.5 2.4 5Zm-12.3-2.7h-1v5.5h1v-5.5Zm-10.5.5c.4-1.2-.1-2.3-1.2-2.8-1.3-.7-2.7-.2-3.5 1.4-.9 1.5-.4 3 1 3.6 1 .6 2.2.3 2.9-.6l-1-.5c-.3.6-1 .6-1.6.3-.8-.4-1-1.3-.4-2.4.5-1 1.4-1.4 2.2-1 .6.3.9.9.7 1.5l.9.5Zm-12.5-6.1c1.5-1 1.7-2.6.8-3.7-.8-1.2-2.3-1.5-3.7-.4-1.5 1-1.7 2.5-.9 3.7.9 1.2 2.4 1.4 3.8.4Zm-.6-.8c-1 .7-2 .6-2.4-.1-.6-.8-.4-1.7.6-2.4 1-.8 2-.6 2.5 0 .5.8.3 1.7-.7 2.5Zm-6.7-11.8.3 1c1-.4 1.3-1.3 1-2.5-.4-1-1.3-1.7-2.2-1.4-.8.3-1 1-1 1.9v.6c0 .6 0 1-.4 1.2-.4.1-.9-.2-1-.8-.3-.6-.1-1.2.4-1.4l-.3-1c-1 .5-1.4 1.4-1 2.6.4 1.3 1.3 1.8 2.2 1.5 1-.2 1.1-1.1 1-2V51c0-.5 0-1 .4-1.1.4-.2.8.1 1 .7.2.6 0 1-.4 1.2Zm55.3-28.8 1.7 3.2.7-.4-1.2-2.3 1.3-.7 1.1 2 .8-.3-1.2-2.1 1.4-.7 1.2 2.2.7-.4-1.7-3.1-4.8 2.6ZM79.4 10l1.4 1-2.8 3.7.8.6 2.8-3.8 1.4 1 .5-.7-3.6-2.6-.5.7Zm-15-.7 3.3.5.2-.8-2.4-.4.7-4.6-1-.1-.8 5.4Zm-13.7 1.1 3.4-1-.2-.8-2.5.7-.4-1.5 2.3-.6-.2-.8-2.4.6-.4-1.4 2.5-.7-.2-.8L49 5l1.6 5.3Zm-14 1.6-.8.7 5.1 2.8 1-.8-2.3-5.4-.8.7 1.8 4.2-4-2.3ZM30 21.7l.4-1c-.8-.3-1.8.1-2.3 1.2-.5 1-.3 2 .6 2.5.7.4 1.3 0 2-.7l.4-.4c.4-.5.7-.8 1.1-.6.4.2.5.8.2 1.3-.2.6-.7 1-1.3.7l-.4.9c1 .4 2 0 2.5-1.2.6-1.2.3-2.1-.5-2.6-.9-.4-1.6.1-2.2.8l-.3.4c-.3.3-.7.7-1.1.5-.4-.2-.5-.7-.2-1.2.2-.6.7-.8 1.1-.6Z" fill="#fff"/>
    <circle cx="26.8" cy="37.1" r=".9" fill="#fff"/>
    <circle cx="92.9" cy="37.1" r=".9" fill="#fff"/>
    <path d="M74.3 24.1a12.7 12.7 0 0 0-17-3.7l-9.8 6.3a11.2 11.2 0 0 0-5 7.5 12 12 0 0 0 1.1 7.6 11.3 11.3 0 0 0-1.6 9c.4 1.6 1 3 2 4.3a12.7 12.7 0 0 0 17 3.7l9.8-6.2a11.2 11.2 0 0 0 5-7.5 12 12 0 0 0-1.1-7.6 11.4 11.4 0 0 0 1.6-9c-.4-1.6-1-3-2-4.3" fill="url(#c)"/>
    <path d="M56.5 55.4a7.9 7.9 0 0 1-8.4-3 7 7 0 0 1-1-6.3l.2-.6.5.4a15 15 0 0 0 3.8 1.9l.4.1v.4c0 .5 0 1 .4 1.4a2.3 2.3 0 0 0 3 .7l9.9-6.2a2 2 0 0 0 .9-2.2l-.4-.8a2.3 2.3 0 0 0-3.1-.6l-3.8 2.3c-.6.4-1.2.7-2 .9a7.9 7.9 0 0 1-8.3-3 7 7 0 0 1-1.2-5.5 6.6 6.6 0 0 1 3-4.4l9.9-6.2c.6-.4 1.2-.7 2-.9a7.9 7.9 0 0 1 8.3 3 7 7 0 0 1 1 6.4l-.2.5-.5-.3c-1.2-.9-2.5-1.5-3.8-2h-.4V31c0-.5 0-1-.4-1.5a2.3 2.3 0 0 0-3-.6l-9.9 6.2a2 2 0 0 0-.9 2.2l.4.7a2.3 2.3 0 0 0 3 .7l3.8-2.3a7 7 0 0 1 2-1 7.8 7.8 0 0 1 8.4 3.1 7 7 0 0 1 1.2 5.4 6.6 6.6 0 0 1-3 4.5l-9.9 6.2a6 6 0 0 1-2 .8Z" fill="#fff"/>
    <g filter="url(#d)">
      <path d="M51.5 18.7a6 6 0 0 1 3.3.5l-.4 2.2s-1.8-.6-2.4-1.5c-.2-.2.2-.7.2-.7s-.6 0-.7.5c0 .6.3 1 3 2 2.6.9 2.4 2 4.6 3.5 2.3 1.5 4.1 2.4 6.8 3.7 2.6 1.3 6.3 1.7 8 1.6 1.6-.1 3-.5 3.9-.8l.8-3.8.4.1.2-.8a5 5 0 0 1 4 5.7c-.8 4.5-6 4.6-9.7 4-8.8-1.5-24.4-11-23.7-14.7.2-1.4 1-1.3 1.7-1.5Z" fill="#000"/>
    </g>
    <path d="m54.6 22 .7-4 22.9 8 .4.1c.3 2.3-.9 3.8-.9 3.8-3.6 1.7-9.6.2-11.9-.8-4-1.9-8.7-4.9-11.2-7.2Z" fill="url(#e)"/>
    <path d="M56.4 14.1c-1.1 3.1-1.3 5-1.3 5 1.4 1.7 8 6.4 14.3 7.5 4.2.7 6.9 1 9.2-.3l.2-1.4.9-4.8c.9-5.2-5.9-9.1-8.5-9.6l-5.2-1c-5.5-.9-8.4 1.5-9.6 4.6Z" fill="#000"/>
    <path d="M79.6 32.3c3.3-.9 3.6-3.2 3.2-4.2.8 1.4.1 3.9-3.5 4.8-2.3.6-7.4.4-17-5.7 6.8 3.8 12.6 6.3 17.3 5Z" fill="#fff"/>
  </g>
  <defs>
    <linearGradient id="b" x1="60" y1="1" x2="60" y2="77.5" gradientUnits="userSpaceOnUse">
      <stop stop-color="#FDB003"/>
      <stop offset="1" stop-color="#FF00C7"/>
    </linearGradient>
    <linearGradient id="c" x1="59.2" y1="18.6" x2="59.2" y2="60.7" gradientUnits="userSpaceOnUse">
      <stop stop-color="#FDB003"/>
      <stop offset="1" stop-color="#FF00C7"/>
    </linearGradient>
    <linearGradient id="e" x1="67.4" y1="20.2" x2="65.8" y2="29.6" gradientUnits="userSpaceOnUse">
      <stop stop-color="#FDB003"/>
      <stop offset="1" stop-color="#FF00C7"/>
    </linearGradient>
    <clipPath id="a">
      <path fill="#fff" transform="translate(21.8 1)" d="M0 0h76.5v76.5H0z"/>
    </clipPath>
    <filter id="d" x="49" y="18.6" width="35" height="18.1" filterUnits="userSpaceOnUse" color-interpolation-filters="sRGB">
      <feFlood flood-opacity="0" result="BackgroundImageFix"/>
      <feColorMatrix in="SourceAlpha" values="0 0 0 0 0 0 0 0 0 0 0 0 0 0 0 0 0 0 127 0" result="hardAlpha"/>
      <feOffset dy=".8"/>
      <feGaussianBlur stdDeviation=".4"/>
      <feColorMatrix values="0 0 0 0 0 0 0 0 0 0 0 0 0 0 0 0 0 0 0.25 0"/>
      <feBlend in2="BackgroundImageFix" result="effect1_dropShadow_207_9"/>
      <feBlend in="SourceGraphic" in2="effect1_dropShadow_207_9" result="shape"/>
    </filter>
  </defs>
</svg>