<svg width="491" height="690" fill="none" xmlns="http://www.w3.org/2000/svg">
  <path d="M216 .2a166.2 166.2 0 0 0-27.4 5l-5 1.5c-2.1.6-4.2 1.3-4.7 1.6-.5.2-1.3.4-1.8.4s-1.1.2-1.4.4l-2.5 1.1a162.5 162.5 0 0 0-49.6 26.4A182.6 182.6 0 0 0 86 75.2a279.8 279.8 0 0 0-32.4 60.7l-2 4.8c-.2.7-1 2.5-1.5 4.2l-1.5 4c-.3.6-1 2.5-1.5 4.3-.6 1.8-1.3 3.7-1.6 4.1-.3.5-.5 1.4-.5 2 0 .5-.2 1-.5 1.2-.2.2-.5.8-.5 1.3a5 5 0 0 1-.4 1.9 60.7 60.7 0 0 1-3 9.7l-1.1 3.5-1 3.5-1 3.5-1 3.5-1 3.9c-.3.8-.5 2-.5 2.6 0 .5-.2 1.2-.5 1.3-.2.2-.5 1-.7 2a73.8 73.8 0 0 1-1.9 8.1l-2 9-1 4.2-2 8.8-1 5.2-1 5.3c-1 4.4-2 10.5-3 15.7l-1 6c-1 5-1.4 8-3.1 19.2l-1 6.4a422.3 422.3 0 0 0-2 13.1 421 421 0 0 0-2 13l-2 13.8a798.3 798.3 0 0 0-3 21c-.4 2-.8 5.2-1 6.8l-1 7.6-1 8.5A704.8 704.8 0 0 0 .5 417a351 351 0 0 0 5 85.6c1.4 6.2 2.4 10.5 3.1 13l.8 3 .8 2.4a60.7 60.7 0 0 1 2 6.5c.3.6 1 2.5 1.5 4.3 1.1 3.3 1.3 3.9 2.7 7l1.6 4a150.5 150.5 0 0 0 21.2 34.7l4 4.7c1.7 1.8 3.1 3.4 3.4 3.4.2 0-1-2-2.6-4.4-4.1-6.1-5-7.7-9.3-16.4a122.7 122.7 0 0 1-7.4-16.7c-.6-1.3-3-8.6-3.6-10.7l-2-7a72.9 72.9 0 0 1-2-8.2c-1-4.8-1.5-6.9-3-16.1a357.5 357.5 0 0 1-3.6-51 676 676 0 0 1 4.6-70.7 1278.8 1278.8 0 0 1 6-44.4l1-6.3 1-6.8c1-5.3 1.6-10 2.2-13.9l1-6.2 1-6.6 2-13.3c1-7.2 2.8-17.7 4-24.2l1-5a299 299 0 0 1 3-14.9l1-4.8 1-4.7 1-4.5 1-4.3a335.2 335.2 0 0 1 3-12.3 174.4 174.4 0 0 1 3.1-11.6l1-3.6c.7-3 1-4.2 1.5-5.3l1-3.2 2-6.8a460.2 460.2 0 0 0 6-18.2 83.1 83.1 0 0 0 3.1-8.2 106.2 106.2 0 0 0 3-7.4l1-2.5 1.4-3.3 2-4.5c2.6-6.2 12.4-25.2 16.3-31.5l3-5.2c2.8-4.8 10.6-15.4 17.2-23.4a255 255 0 0 1 19.8-20.2 176 176 0 0 1 53.1-31.9l3-1 2.8-1a66.6 66.6 0 0 1 9-3c.6-.3 2.1-.7 3.4-1l3.5-1.1a173 173 0 0 1 18.8-4 123 123 0 0 1 25-1 151.7 151.7 0 0 1 32 5 122 122 0 0 1 15 4.5c.6 0 10 3.7 14.2 5.6l4.5 2c3.3 1.4 13.9 6.7 19.4 9.8l11.1 5.6a705.6 705.6 0 0 1 48.1 25.4c.2 0 3.4 2 7.2 4.6 8.7 5.9 8.7 6 7 4-4.8-5.2-21-17.2-30.7-22.7l-6.4-3.7-7.3-4.1a3433.8 3433.8 0 0 0-64.7-32.7l-4.6-2c-2.9-1.2-4.5-1.9-5.8-2.3l-2.2-1a139.4 139.4 0 0 0-12.4-4.1l-2.2-.7c-.7 0-2.1-.4-3-.7a81.7 81.7 0 0 0-12.9-3.1C243.5.7 225.9-.5 216 .2Zm215 106.5a167.2 167.2 0 0 1 15.6 28.9l1.6 3.8c1.2 2.7 1.5 3.5 2.8 7l1.6 4a307.6 307.6 0 0 1 5 15c.2.5.4 1.4.4 1.9s.2 1 .5 1.2c.2.2.5 1 .7 1.7a163.2 163.2 0 0 0 4 15l.8 3.8 1 4.2 1.1 4.6c.5 1.8.8 2.9 2 9.3l1 5.3a666.1 666.1 0 0 1 5 33c5 39.8 5 92.7 0 132.2l-.9 8-1 7.3-1 6.6-2 11.5-1 5-2.1 9.2-1 3.7-1 4a63 63 0 0 1-1.1 4.2l-2 6c-.5 2.1-1.2 4.3-1.5 4.9a256.8 256.8 0 0 0-3 8.5l-1.7 4.5-2.1 5.3-1.2 2.8c-.8 2-2.6 5.8-7.3 15.4a247.1 247.1 0 0 1-15.4 27.9l-7.6 11.7a517 517 0 0 1-22 30.6l-32.1 40-6 7a513.5 513.5 0 0 1-28.6 29.2 277.3 277.3 0 0 1-31.4 23.3 228.5 228.5 0 0 1-31.7 15c-.7 0-1.3.2-1.5.5-.1.3-.8.5-1.5.5s-1.3.2-1.5.5c-.1.2-.9.5-1.6.7l-3.4.8c-7.2 2-13.8 3.3-22 4-5.9.7-22.7.3-27.7-.5a181.8 181.8 0 0 1-48.8-14.9c-4.4-2-16.5-8.2-20.8-10.6L137 648l-2.5-1.4-2.3-1.5-3.7-2-3.5-2-3.6-2.1-3.5-2-3.6-2-2.4-1.5c-.3-.3-1.8-1.1-3.3-2a186.8 186.8 0 0 1-13.4-7.6l-2.9-1.7a329.2 329.2 0 0 1-24-15.7l-1.3-1 1 1.2c2 2.3 11.1 10 16.4 13.7 3 2 6.8 4.8 8.6 6.1l3.7 2.4c.2 0 1.7 1 3.3 2 1.6 1.2 3.2 2 3.3 2 .2 0 1.3.8 2.5 1.6l2.4 1.5 3.7 2c1.8 1.2 4.2 2.5 5 3l3.7 2 4.1 2.4 7 4 6.4 3.7 5 3 3.6 2 2.4 1.5 4.6 2.8 4.8 2.7a433 433 0 0 0 24 11.8 51.2 51.2 0 0 0 5.8 2.3c2.9 1.3 7.2 2.8 10 3.6l3.5 1 3.5 1 3.5 1a87.2 87.2 0 0 0 8.3 1.9c4.2 1 16.6 2.2 24.2 2.3a132 132 0 0 0 45.6-8.8 195.4 195.4 0 0 0 44.3-24.6 267.4 267.4 0 0 0 45.9-43.8c2.9-2.8 31.5-38.5 43.2-54A540.3 540.3 0 0 0 448 517a343.8 343.8 0 0 0 18.8-38l1.9-4.9 1-2.8 1-2.8 1-2.8 1-2.7 1.6-4.8 1.9-6 1.1-4.2 1-3.8c1.6-6.5 2.3-9.5 3-13.2l1-5a179.7 179.7 0 0 0 3-18.2 580 580 0 0 0 5.2-50.6c.8-13.5.8-48.8 0-62.4a526.6 526.6 0 0 0-7.2-62.9l-.7-4.3-.8-3.8-1-5a81.7 81.7 0 0 0-2-9 117.6 117.6 0 0 0-2-8.6l-1-3.8-1-3.4-1-4.3-3.6-11.4a318 318 0 0 0-2.5-7.8l-1-2.8-1-2.8c-.2-.5-1-2.3-1.5-4-1.4-3.8-1.7-4.7-2.5-6.5l-1-2.5c-1.8-4.4-10.3-21-13-25.1l-1.9-3c-3-4.9-11-15.1-15.7-20l-2.7-2.8 3.7 5.6Z" fill="url(#a)"/>
  <defs>
    <linearGradient id="a" x1="245.5" y1="690" x2="245.5" y2="0" gradientUnits="userSpaceOnUse">
      <stop stop-color="#2B1336"/>
      <stop offset="1" stop-color="#64004E"/>
    </linearGradient>
  </defs>
</svg>